<svg width="20" height="20" viewBox="0 0 20 20" fill="none" xmlns="http://www.w3.org/2000/svg">
<path fill-rule="evenodd" clip-rule="evenodd" d="M6.97997 2.77831C7.09588 2.60444 7.29103 2.5 7.5 2.5H12.5C12.709 2.5 12.9041 2.60444 13.02 2.77831L14.0845 4.375H16.25C16.7473 4.375 17.2242 4.57254 17.5758 4.92418C17.9275 5.27581 18.125 5.75272 18.125 6.25V15C18.125 15.4973 17.9275 15.9742 17.5758 16.3258C17.2242 16.6775 16.7473 16.875 16.25 16.875H3.75C3.25272 16.875 2.77581 16.6775 2.42417 16.3258C2.07254 15.9742 1.875 15.4973 1.875 15V6.25C1.875 5.75272 2.07254 5.27581 2.42417 4.92418C2.77581 4.57254 3.25272 4.375 3.75 4.375H5.91551L6.97997 2.77831ZM7.83449 3.75L6.77003 5.34669C6.65412 5.52056 6.45897 5.625 6.25 5.625H3.75C3.58424 5.625 3.42527 5.69085 3.30806 5.80806C3.19085 5.92527 3.125 6.08424 3.125 6.25V15C3.125 15.1658 3.19085 15.3247 3.30806 15.4419C3.42527 15.5592 3.58424 15.625 3.75 15.625H16.25C16.4158 15.625 16.5747 15.5592 16.6919 15.4419C16.8092 15.3247 16.875 15.1658 16.875 15V6.25C16.875 6.08424 16.8092 5.92527 16.6919 5.80806C16.5747 5.69085 16.4158 5.625 16.25 5.625H13.75C13.541 5.625 13.3459 5.52056 13.23 5.34669L12.1655 3.75H7.83449Z" fill="#6276CC"/>
<path fill-rule="evenodd" clip-rule="evenodd" d="M10 8.125C8.79188 8.125 7.8125 9.10438 7.8125 10.3125C7.8125 11.5206 8.79188 12.5 10 12.5C11.2081 12.5 12.1875 11.5206 12.1875 10.3125C12.1875 9.10438 11.2081 8.125 10 8.125ZM6.5625 10.3125C6.5625 8.41402 8.10152 6.875 10 6.875C11.8985 6.875 13.4375 8.41402 13.4375 10.3125C13.4375 12.211 11.8985 13.75 10 13.75C8.10152 13.75 6.5625 12.211 6.5625 10.3125Z" fill="#6276CC"/>
</svg>
