<svg width="52" height="52" viewBox="0 0 52 52" fill="none" xmlns="http://www.w3.org/2000/svg">
<rect width="52" height="52" rx="10" fill="url(#paint0_linear_52_775)"/>
<path fill-rule="evenodd" clip-rule="evenodd" d="M26 14C25.4696 14 24.9609 14.2107 24.5858 14.5858C24.2107 14.9609 24 15.4696 24 16V22C24 22.3788 23.786 22.725 23.4472 22.8944L14 27.618V29.7802L22.8039 28.0194C23.0977 27.9607 23.4023 28.0367 23.634 28.2267C23.8657 28.4166 24 28.7004 24 29V33C24 33.2652 23.8946 33.5196 23.7071 33.7071L22 35.4142V37.523L25.6286 36.0715C25.867 35.9762 26.133 35.9762 26.3714 36.0715L30 37.523V35.4142L28.2929 33.7071C28.1054 33.5196 28 33.2652 28 33V29C28 28.7004 28.1343 28.4166 28.366 28.2267C28.5977 28.0367 28.9023 27.9607 29.1961 28.0194L38 29.7802V27.618L28.5528 22.8944C28.214 22.725 28 22.3788 28 22V16C28 15.4696 27.7893 14.9609 27.4142 14.5858C27.0391 14.2107 26.5304 14 26 14ZM23.1716 13.1716C23.9217 12.4214 24.9391 12 26 12C27.0609 12 28.0783 12.4214 28.8284 13.1716C29.5786 13.9217 30 14.9391 30 16V21.382L39.4472 26.1056C39.786 26.275 40 26.6212 40 27V31C40 31.2996 39.8657 31.5834 39.634 31.7733C39.4023 31.9633 39.0977 32.0393 38.8039 31.9806L30 30.2198V32.5858L31.7071 34.2929C31.8946 34.4804 32 34.7348 32 35V39C32 39.3318 31.8354 39.642 31.5606 39.8281C31.2859 40.0141 30.9367 40.0517 30.6286 39.9285L26 38.077L21.3714 39.9285C21.0633 40.0517 20.7141 40.0141 20.4394 39.8281C20.1646 39.642 20 39.3318 20 39V35C20 34.7348 20.1054 34.4804 20.2929 34.2929L22 32.5858V30.2198L13.1961 31.9806C12.9023 32.0393 12.5977 31.9633 12.366 31.7733C12.1343 31.5834 12 31.2996 12 31V27C12 26.6212 12.214 26.275 12.5528 26.1056L22 21.382V16C22 14.9391 22.4214 13.9217 23.1716 13.1716Z" fill="white"/>
<defs>
<linearGradient id="paint0_linear_52_775" x1="-16.3627" y1="-19.8824" x2="0.965244" y2="77.045" gradientUnits="userSpaceOnUse">
<stop stop-color="#ECA7A7"/>
<stop offset="1" stop-color="#6086DE"/>
</linearGradient>
</defs>
</svg>
