<svg width="136" height="136" viewBox="0 0 136 136" fill="none" xmlns="http://www.w3.org/2000/svg">
<circle cx="68" cy="68" r="68" fill="#9AA1B8"/>
<path d="M86.1329 88.4V83.8667C86.1329 81.462 85.1776 79.1559 83.4773 77.4556C81.777 75.7552 79.4708 74.8 77.0662 74.8H58.9329C56.5282 74.8 54.2221 75.7552 52.5218 77.4556C50.8214 79.1559 49.8662 81.462 49.8662 83.8667V88.4" stroke="white" stroke-width="2" stroke-linecap="round" stroke-linejoin="round"/>
<path d="M68.0003 65.7333C73.0076 65.7333 77.0669 61.6741 77.0669 56.6667C77.0669 51.6593 73.0076 47.6 68.0003 47.6C62.9929 47.6 58.9336 51.6593 58.9336 56.6667C58.9336 61.6741 62.9929 65.7333 68.0003 65.7333Z" stroke="white" stroke-width="2" stroke-linecap="round" stroke-linejoin="round"/>
</svg>
